# xmcd
#
# Track frame offsets: 
#        150
#        10827
#        25680
#        42444
#        62430
#        81922
#        97654
#        115299
#        133396
#        146719
#        162786
#        180936
#        208015
#
# Disc length: 3003 seconds
#
# Revision: 0
# Processed by: cddbd v1.5.2PL0 Copyright (c) Steve Scherf et al.
# Submitted via: ExactAudioCopy v0.99pb4
#
DISCID=a50bb90d
DTITLE=Mange Schmidt - Odenplan Stockholm 1988
DYEAR=2009
DGENRE=Hip-Hop
TTITLE0=Varje dag (intro)
TTITLE1=Ledig
TTITLE2=Vill du se en stjärna
TTITLE3=Vet att du förstår
TTITLE4=Odenplan Stockholm 1988
TTITLE5=Snubben är old school (Men Flavorn E Fresh)
TTITLE6=Aldrig pank (feat. Mohammad Ali)
TTITLE7=Först och främst (feat. Thomas Rusiak)
TTITLE8=Hur är det möjligt
TTITLE9=Min natur
TTITLE10=Inget att förlora
TTITLE11=Håll käften del III (feat. Thomas Rusiak and Eye-N-I)
TTITLE12=Varje dag (utro)
EXTD=
EXTT0=
EXTT1=
EXTT2=
EXTT3=
EXTT4=
EXTT5=
EXTT6=
EXTT7=
EXTT8=
EXTT9=
EXTT10=
EXTT11=
EXTT12=
PLAYORDER=
